<?xml version="1.0" standalone="no"?>
<!DOCTYPE svg PUBLIC "-//W3C//DTD SVG 20010904//EN"
 "http://www.w3.org/TR/2001/REC-SVG-20010904/DTD/svg10.dtd">
<svg version="1.0" xmlns="http://www.w3.org/2000/svg"
 width="98.000000pt" height="92.000000pt" viewBox="0 0 98.000000 92.000000"
 preserveAspectRatio="xMidYMid meet">
<metadata>
Created by potrace 1.10, written by Peter Selinger 2001-2011
</metadata>
<g transform="translate(0.000000,92.000000) scale(0.100000,-0.100000)"
fill="#fc8c04" stroke="none">
<path d="M578 855 c-2 -2 -73 -5 -158 -5 -133 -1 -161 -4 -197 -22 -40 -18
-44 -25 -63 -86 -11 -37 -22 -85 -24 -107 -3 -22 -8 -51 -11 -65 -3 -14 -8
-36 -10 -50 -2 -14 -16 -79 -30 -145 -56 -264 -55 -258 -40 -274 22 -22 231
-33 550 -29 323 5 338 8 343 72 2 21 -1 43 -7 49 -6 6 -11 24 -11 41 0 16 -4
43 -10 60 -5 17 -25 117 -45 221 -19 105 -40 206 -45 226 -15 53 -46 87 -88
98 -42 10 -148 21 -154 16z"/>
</g>
</svg>
